<?xml version="1.0" encoding="utf-8"?>
<!-- Generator: Adobe Illustrator 23.0.6, SVG Export Plug-In . SVG Version: 6.00 Build 0)  -->
<svg version="1.1" id="Capa_1" xmlns="http://www.w3.org/2000/svg" xmlns:xlink="http://www.w3.org/1999/xlink" x="0px" y="0px"
	 viewBox="0 0 50 50" style="enable-background:new 0 0 50 50;" xml:space="preserve">
<style type="text/css">
	.st0{fill:#FFFFFF;}
</style>
<path class="st0" d="M36.7,32.3c2.5-3.4,3.9-7.5,3.9-12C40.6,9.1,31.5,0,20.3,0S0,9.1,0,20.3s9.1,20.3,20.3,20.3
	c4.5,0,8.6-1.5,12-3.9L45.6,50l4.4-4.4C50,45.6,36.7,32.3,36.7,32.3L36.7,32.3z M20.3,34.4c-7.8,0-14.1-6.3-14.1-14.1
	S12.6,6.3,20.3,6.3s14.1,6.3,14.1,14.1S28.1,34.4,20.3,34.4L20.3,34.4z"/>
</svg>
