<?xml version="1.0" encoding="utf-8"?>
<!-- Generator: Adobe Illustrator 23.0.6, SVG Export Plug-In . SVG Version: 6.00 Build 0)  -->
<svg version="1.1" id="Capa_1" xmlns="http://www.w3.org/2000/svg" xmlns:xlink="http://www.w3.org/1999/xlink" x="0px" y="0px"
	 viewBox="0 0 50 50" style="enable-background:new 0 0 50 50;" xml:space="preserve">
<g id="surface1">
	<path d="M34.5,29.6c5.9-8.3,3.9-19.8-4.4-25.7S10.2,0,4.4,8.3C-1.5,16.6,0.4,28.1,8.8,34c5.9,4.2,13.8,4.5,20,0.8l13.6,13.5
		c1.5,1.5,3.9,1.6,5.5,0.1c1.5-1.5,1.6-3.9,0.1-5.5c0,0-0.1-0.1-0.1-0.1L34.5,29.6z M19.4,30.8c-6.6,0-11.9-5.3-11.9-11.9
		c0-6.6,5.3-11.9,11.9-11.9c6.6,0,11.9,5.3,11.9,11.9C31.3,25.5,26,30.8,19.4,30.8C19.4,30.8,19.4,30.8,19.4,30.8z"/>
</g>
</svg>
