<?xml version="1.0" encoding="utf-8"?>
<!-- Generator: Adobe Illustrator 23.0.6, SVG Export Plug-In . SVG Version: 6.00 Build 0)  -->
<svg version="1.1" id="Capa_1" xmlns="http://www.w3.org/2000/svg" xmlns:xlink="http://www.w3.org/1999/xlink" x="0px" y="0px"
	 viewBox="0 0 50 50" style="enable-background:new 0 0 50 50;" xml:space="preserve">
<g>
	<path d="M49,9.6c-0.9-1.1-2.3-1.7-3.7-1.7H14.5c-0.9,0-1.7,0.2-2.4,0.7l-1.6-5.5c-0.3-0.9-1.1-1.5-2-1.5H6.1H1.6
		C0.7,1.5,0,2.2,0,3.1v0.2c0,0.9,0.7,1.6,1.6,1.6h6l3,10.8l4.2,14.9c-2.4,0.6-4.2,2.8-4.2,5.3c0,2.9,2.3,5.3,5.1,5.5
		c-0.2,0.7-0.4,1.4-0.3,2.2c0.2,2.6,2.3,4.7,5,4.9c3.1,0.2,5.7-2.3,5.7-5.4c0-0.6-0.1-1.2-0.3-1.8h6.3c-0.3,0.7-0.4,1.6-0.3,2.4
		c0.3,2.5,2.4,4.5,5,4.7c3.1,0.2,5.8-2.3,5.8-5.4c0-3-2.5-5.4-5.5-5.4h-21c-1,0-1.9-0.8-1.9-1.8c0-1.1,0.8-2,1.9-2h3.2h17.1h4.8
		c2.1,0,4-1.5,4.5-3.5l4.2-16.8C50.2,12.2,49.9,10.7,49,9.6z M37.3,41.3c1,0,1.8,0.8,1.8,1.8s-0.8,1.8-1.8,1.8c-1,0-1.8-0.8-1.8-1.8
		S36.3,41.3,37.3,41.3z M20.8,41.3c1,0,1.8,0.8,1.8,1.8s-0.8,1.8-1.8,1.8s-1.8-0.8-1.8-1.8C19.1,42.1,19.9,41.3,20.8,41.3z
		 M14.3,15.6l-0.8-2.8c-0.1-0.4,0.1-0.8,0.2-0.9c0.1-0.2,0.4-0.4,0.8-0.4h3.4l0.9,4.2L14.3,15.6L14.3,15.6L14.3,15.6z M15.4,19.2
		h4.3l0.8,3.9h-4L15.4,19.2z M19.3,30.3c-0.5,0-0.9-0.3-1-0.8l-0.8-2.9h3.8l0.8,3.6L19.3,30.3L19.3,30.3L19.3,30.3z M28.3,30.3h-2.5
		l-0.8-3.6h3.3L28.3,30.3L28.3,30.3z M28.3,23.1h-4.1l-0.8-3.9h5V23.1z M28.3,15.6h-5.8l-0.9-4.2h6.7V15.6z M34.7,30.3h-2.8v-3.6
		h3.6L34.7,30.3z M36.3,23.1h-4.4v-3.9h5.2L36.3,23.1z M31.9,15.6v-4.2h6.8l-0.9,4.2H31.9z M42.2,29.6c-0.1,0.5-0.5,0.8-1,0.8h-2.8
		l0.8-3.6h3.7L42.2,29.6z M43.8,23.1h-3.9l0.8-3.9h4L43.8,23.1z M46.4,12.7l-0.7,2.9h-4.1l0.9-4.2h3c0.4,0,0.7,0.2,0.8,0.4
		C46.3,12,46.5,12.3,46.4,12.7z"/>
</g>
</svg>
